{
	"asset":{
		"generator":"Khronos glTF Blender I/O v3.5.30",
		"version":"2.0"
	},
	"scene":0,
	"scenes":[
		{
			"name":"Scene",
			"nodes":[
				9
			]
		}
	],
	"nodes":[
		{
			"name":"Object_7"
		},
		{
			"children":[
				0
			],
			"name":"Camera.001",
			"rotation":[
				-0.21255724132061005,
				0.9047970175743103,
				-0.08438936620950699,
				0.3592217266559601
			],
			"scale":[
				100.00001525878906,
				100.00000762939453,
				100.00000762939453
			],
			"translation":[
				735.88916015625,
				495.8309326171875,
				692.5791015625
			]
		},
		{
			"name":"Object_5"
		},
		{
			"children":[
				2
			],
			"name":"Object_4",
			"rotation":[
				0.70710688829422,
				0,
				0,
				0.7071066498756409
			]
		},
		{
			"children":[
				3
			],
			"name":"Light.001",
			"rotation":[
				0.16907571256160736,
				0.7558803558349609,
				-0.27217134833335876,
				0.5709474682807922
			],
			"scale":[
				100.00000762939453,
				100,
				100
			],
			"translation":[
				407.6245422363281,
				590.38623046875,
				-100.54539489746094
			]
		},
		{
			"mesh":0,
			"name":"Sphere_Khoras 3D World_0",
			"scale":[
				0.009999999776482582,
				0.009999999776482582,
				0.009999999776482582
			]
		},
		{
			"children":[
				5
			],
			"name":"Sphere",
			"rotation":[
				-0.70710688829422,
				0,
				0,
				0.7071066498756409
			],
			"scale":[
				100,
				99.99998474121094,
				99.99998474121094
			]
		},
		{
			"children":[
				1,
				4,
				6
			],
			"name":"RootNode"
		},
		{
			"children":[
				7
			],
			"name":"986e8a310b0b432ebc19bc21931f6704.fbx",
			"rotation":[
				0.70710688829422,
				0,
				0,
				0.7071066498756409
			]
		},
		{
			"children":[
				8
			],
			"name":"Sketchfab_model",
			"rotation":[
				-0.70710688829422,
				0,
				0,
				0.7071066498756409
			]
		}
	],
	"materials":[
		{
			"doubleSided":true,
			"name":"Khoras_3D_World",
			"pbrMetallicRoughness":{
				"baseColorTexture":{
					"index":0
				},
				"metallicFactor":0,
				"roughnessFactor":0.8211145401000977
			}
		}
	],
	"meshes":[
		{
			"name":"Sphere_Khoras 3D World_0",
			"primitives":[
				{
					"attributes":{
						"POSITION":0,
						"TEXCOORD_0":1,
						"NORMAL":2
					},
					"indices":3,
					"material":0
				}
			]
		}
	],
	"textures":[
		{
			"sampler":0,
			"source":0
		}
	],
	"images":[
		{
			"mimeType":"image/jpeg",
			"name":"Khoras_3D_World_baseColor",
			"uri":"Khoras_3D_World_baseColor.jpg"
		}
	],
	"accessors":[
		{
			"bufferView":0,
			"componentType":5126,
			"count":2143,
			"max":[
				2.0000011920928955,
				2,
				2
			],
			"min":[
				-2.000000476837158,
				-2.000002145767212,
				-2
			],
			"type":"VEC3"
		},
		{
			"bufferView":1,
			"componentType":5126,
			"count":2143,
			"type":"VEC2"
		},
		{
			"bufferView":2,
			"componentType":5126,
			"count":2143,
			"type":"VEC3"
		},
		{
			"bufferView":3,
			"componentType":5123,
			"count":11904,
			"type":"SCALAR"
		}
	],
	"bufferViews":[
		{
			"buffer":0,
			"byteLength":25716,
			"byteOffset":0,
			"target":34962
		},
		{
			"buffer":0,
			"byteLength":17144,
			"byteOffset":25716,
			"target":34962
		},
		{
			"buffer":0,
			"byteLength":25716,
			"byteOffset":42860,
			"target":34962
		},
		{
			"buffer":0,
			"byteLength":23808,
			"byteOffset":68576,
			"target":34963
		}
	],
	"samplers":[
		{
			"magFilter":9729,
			"minFilter":9987
		}
	],
	"buffers":[
		{
			"byteLength":92384,
			"uri":"world_of_khoras.bin"
		}
	]
}
